<svg xmlns="http://www.w3.org/2000/svg" xmlns:xlink="http://www.w3.org/1999/xlink" width="500" zoomAndPan="magnify" viewBox="0 0 375 149.999998" height="200" preserveAspectRatio="xMidYMid meet" version="1.2"><defs><clipPath id="b81367653f"><path d="M 1 24.660156 L 91.78125 24.660156 L 91.78125 100.554688 L 1 100.554688 Z M 1 24.660156 "/></clipPath><clipPath id="61516bd8da"><path d="M 105 0.28125 L 336.398438 0.28125 L 336.398438 98 L 105 98 Z M 105 0.28125 "/></clipPath><clipPath id="e189e22ac9"><rect x="0" width="232" y="0" height="98"/></clipPath><clipPath id="070ea9ee05"><path d="M 107 79 L 336 79 L 336 104.679688 L 107 104.679688 Z M 107 79 "/></clipPath><clipPath id="549b29dade"><path d="M 71 6 L 84 6 L 84 25.679688 L 71 25.679688 Z M 71 6 "/></clipPath><clipPath id="ff0630eedb"><rect x="0" width="229" y="0" height="26"/></clipPath><clipPath id="c61a8cb2b6"><rect x="0" width="337" y="0" height="105"/></clipPath></defs><g id="fc72e57a99"><g transform="matrix(1,0,0,1,14,17)"><g clip-path="url(#c61a8cb2b6)"><g clip-rule="nonzero" clip-path="url(#b81367653f)"><path style=" stroke:none;fill-rule:nonzero;fill:#1b2a41;fill-opacity:1;" d="M 54.394531 47.863281 L 1.003906 101.253906 L 1.003906 78.089844 L 54.394531 24.660156 Z M 37.964844 78.007812 L 37.964844 101.253906 L 74.929688 64.332031 L 74.929688 101.253906 L 91.355469 84.824219 L 91.355469 24.660156 Z M 37.964844 78.007812 "/></g><g clip-rule="nonzero" clip-path="url(#61516bd8da)"><g transform="matrix(1,0,0,1,105,-0.000000000000007105)"><g id="28e4310db2" clip-path="url(#e189e22ac9)"><g style="fill:#1b2a41;fill-opacity:1;"><g transform="translate(0.0577794, 72.864106)"><path style="stroke:none" d="M 58.71875 -48.09375 L 58.71875 0 L 47 0 L 47 -28.84375 L 36.25 0 L 26.796875 0 L 15.96875 -28.90625 L 15.96875 0 L 4.25 0 L 4.25 -48.09375 L 18.09375 -48.09375 L 31.578125 -14.796875 L 44.953125 -48.09375 Z M 58.71875 -48.09375 "/></g></g><g style="fill:#1b2a41;fill-opacity:1;"><g transform="translate(62.941422, 72.864106)"><path style="stroke:none" d="M 34.1875 -8.5 L 16.234375 -8.5 L 13.359375 0 L 1.09375 0 L 18.5 -48.09375 L 32.0625 -48.09375 L 49.46875 0 L 37.0625 0 Z M 31.171875 -17.546875 L 25.21875 -35.15625 L 19.328125 -17.546875 Z M 31.171875 -17.546875 "/></g></g><g style="fill:#1b2a41;fill-opacity:1;"><g transform="translate(113.42643, 72.864106)"><path style="stroke:none" d="M 28.78125 0 L 18.765625 -18.15625 L 15.96875 -18.15625 L 15.96875 0 L 4.25 0 L 4.25 -48.09375 L 23.90625 -48.09375 C 27.695312 -48.09375 30.925781 -47.429688 33.59375 -46.109375 C 36.269531 -44.785156 38.269531 -42.96875 39.59375 -40.65625 C 40.925781 -38.351562 41.59375 -35.785156 41.59375 -32.953125 C 41.59375 -29.753906 40.6875 -26.898438 38.875 -24.390625 C 37.070312 -21.878906 34.414062 -20.097656 30.90625 -19.046875 L 42 0 Z M 15.96875 -26.453125 L 23.234375 -26.453125 C 25.378906 -26.453125 26.988281 -26.972656 28.0625 -28.015625 C 29.132812 -29.066406 29.671875 -30.550781 29.671875 -32.46875 C 29.671875 -34.300781 29.132812 -35.742188 28.0625 -36.796875 C 26.988281 -37.847656 25.378906 -38.375 23.234375 -38.375 L 15.96875 -38.375 Z M 15.96875 -26.453125 "/></g></g><g style="fill:#1b2a41;fill-opacity:1;"><g transform="translate(158.088879, 72.864106)"><path style="stroke:none" d="M 2.265625 -24.125 C 2.265625 -28.875 3.289062 -33.109375 5.34375 -36.828125 C 7.394531 -40.546875 10.257812 -43.441406 13.9375 -45.515625 C 17.613281 -47.597656 21.785156 -48.640625 26.453125 -48.640625 C 32.160156 -48.640625 37.046875 -47.132812 41.109375 -44.125 C 45.171875 -41.113281 47.890625 -37.003906 49.265625 -31.796875 L 36.375 -31.796875 C 35.414062 -33.804688 34.054688 -35.332031 32.296875 -36.375 C 30.546875 -37.425781 28.550781 -37.953125 26.3125 -37.953125 C 22.695312 -37.953125 19.769531 -36.695312 17.53125 -34.1875 C 15.300781 -31.675781 14.1875 -28.320312 14.1875 -24.125 C 14.1875 -19.914062 15.300781 -16.554688 17.53125 -14.046875 C 19.769531 -11.535156 22.695312 -10.28125 26.3125 -10.28125 C 28.550781 -10.28125 30.546875 -10.800781 32.296875 -11.84375 C 34.054688 -12.894531 35.414062 -14.425781 36.375 -16.4375 L 49.265625 -16.4375 C 47.890625 -11.238281 45.171875 -7.140625 41.109375 -4.140625 C 37.046875 -1.148438 32.160156 0.34375 26.453125 0.34375 C 21.785156 0.34375 17.613281 -0.691406 13.9375 -2.765625 C 10.257812 -4.847656 7.394531 -7.738281 5.34375 -11.4375 C 3.289062 -15.132812 2.265625 -19.363281 2.265625 -24.125 Z M 2.265625 -24.125 "/></g></g><g style="fill:#1b2a41;fill-opacity:1;"><g transform="translate(210.286408, 72.864106)"><path style="stroke:none" d="M 15.96875 -48.09375 L 15.96875 0 L 4.25 0 L 4.25 -48.09375 Z M 15.96875 -48.09375 "/></g></g></g></g></g><g clip-rule="nonzero" clip-path="url(#070ea9ee05)"><g transform="matrix(1,0,0,1,107,79)"><g id="74726696ee" clip-path="url(#ff0630eedb)"><g style="fill:#1b2a41;fill-opacity:1;"><g transform="translate(1.091778, 19.936213)"><path style="stroke:none" d="M 10.5 -2.78125 L 15.609375 -17.984375 L 19.0625 -17.984375 L 19.0625 0 L 16.703125 0 L 16.703125 -10.71875 L 16.734375 -14.078125 C 16.742188 -14.296875 16.75 -14.640625 16.75 -15.109375 L 16.703125 -15.109375 L 11.640625 0 L 9.25 0 L 4.1875 -15.078125 L 4.125 -15.078125 C 4.164062 -13.242188 4.1875 -11.789062 4.1875 -10.71875 L 4.1875 0 L 1.828125 0 L 1.828125 -17.984375 L 5.3125 -17.984375 L 10.4375 -2.78125 Z M 10.5 -2.78125 "/></g></g><g style="fill:#1b2a41;fill-opacity:1;"><g transform="translate(25.843488, 19.936213)"><path style="stroke:none" d="M 7.15625 -1.53125 C 7.726562 -1.53125 8.265625 -1.648438 8.765625 -1.890625 C 9.265625 -2.128906 9.671875 -2.445312 9.984375 -2.84375 C 10.304688 -3.25 10.492188 -3.671875 10.546875 -4.109375 L 12.75 -4.109375 C 12.425781 -2.703125 11.78125 -1.601562 10.8125 -0.8125 C 9.851562 -0.0195312 8.578125 0.375 6.984375 0.375 C 5.710938 0.375 4.625 0.09375 3.71875 -0.46875 C 2.820312 -1.039062 2.144531 -1.820312 1.6875 -2.8125 C 1.226562 -3.8125 1 -4.945312 1 -6.21875 C 1 -8.4375 1.546875 -10.195312 2.640625 -11.5 C 3.734375 -12.8125 5.28125 -13.46875 7.28125 -13.46875 C 9.09375 -13.46875 10.484375 -12.800781 11.453125 -11.46875 C 12.429688 -10.132812 12.921875 -8.253906 12.921875 -5.828125 L 3.359375 -5.828125 C 3.359375 -4.429688 3.675781 -3.363281 4.3125 -2.625 C 4.957031 -1.894531 5.90625 -1.53125 7.15625 -1.53125 Z M 6.984375 -11.5 C 6.347656 -11.5 5.753906 -11.320312 5.203125 -10.96875 C 4.660156 -10.613281 4.21875 -10.132812 3.875 -9.53125 C 3.53125 -8.9375 3.359375 -8.289062 3.359375 -7.59375 L 10.640625 -7.59375 C 10.441406 -10.195312 9.222656 -11.5 6.984375 -11.5 Z M 6.984375 -11.5 "/></g></g><g style="fill:#1b2a41;fill-opacity:1;"><g transform="translate(43.656124, 19.936213)"><path style="stroke:none" d="M 6.4375 -13.09375 L 6.4375 -11.265625 L 4.328125 -11.265625 L 4.328125 -2.703125 C 4.328125 -2.054688 4.738281 -1.734375 5.5625 -1.734375 L 6.4375 -1.734375 L 6.4375 0 C 5.550781 0.113281 4.992188 0.171875 4.765625 0.171875 C 3.828125 0.171875 3.148438 -0.0507812 2.734375 -0.5 C 2.328125 -0.945312 2.125 -1.632812 2.125 -2.5625 L 2.125 -11.265625 L 0.34375 -11.265625 L 0.34375 -13.09375 L 2.125 -13.09375 L 2.125 -16.75 L 4.328125 -16.75 L 4.328125 -13.09375 Z M 6.4375 -13.09375 "/></g></g><g style="fill:#1b2a41;fill-opacity:1;"><g transform="translate(54.50465, 19.936213)"><path style="stroke:none" d="M 3.703125 -1.828125 L 11.75 -1.828125 L 11.75 0 L 0.78125 0 L 0.78125 -1.734375 L 8.671875 -11.265625 L 1.375 -11.265625 L 1.375 -13.09375 L 11.515625 -13.09375 L 11.515625 -11.296875 Z M 3.703125 -1.828125 "/></g></g><g clip-rule="nonzero" clip-path="url(#549b29dade)"><g style="fill:#1b2a41;fill-opacity:1;"><g transform="translate(70.91445, 19.936213)"><path style="stroke:none" d="M 12.5 -0.796875 C 12.5 1.453125 11.976562 3.066406 10.9375 4.046875 C 9.894531 5.023438 8.378906 5.515625 6.390625 5.515625 C 4.929688 5.515625 3.765625 5.164062 2.890625 4.46875 C 2.015625 3.78125 1.519531 2.828125 1.40625 1.609375 L 3.609375 1.609375 C 3.703125 2.273438 4.003906 2.785156 4.515625 3.140625 C 5.023438 3.503906 5.71875 3.6875 6.59375 3.6875 C 7.820312 3.6875 8.742188 3.347656 9.359375 2.671875 C 9.984375 2.003906 10.296875 0.929688 10.296875 -0.546875 L 10.296875 -1.484375 C 9.578125 -0.242188 8.375 0.375 6.6875 0.375 C 5.46875 0.375 4.429688 0.0546875 3.578125 -0.578125 C 2.722656 -1.222656 2.078125 -2.101562 1.640625 -3.21875 C 1.210938 -4.332031 1 -5.570312 1 -6.9375 C 1 -8.207031 1.222656 -9.335938 1.671875 -10.328125 C 2.128906 -11.328125 2.78125 -12.097656 3.625 -12.640625 C 4.46875 -13.191406 5.414062 -13.46875 6.46875 -13.46875 C 8.144531 -13.46875 9.460938 -12.703125 10.421875 -11.171875 L 10.421875 -13.09375 L 12.5 -13.09375 Z M 10.390625 -5.90625 C 10.390625 -7.789062 10.097656 -9.191406 9.515625 -10.109375 C 8.929688 -11.035156 8.039062 -11.5 6.84375 -11.5 C 5.6875 -11.5 4.800781 -11.109375 4.1875 -10.328125 C 3.582031 -9.554688 3.28125 -8.328125 3.28125 -6.640625 C 3.28125 -5.035156 3.585938 -3.78125 4.203125 -2.875 C 4.828125 -1.976562 5.6875 -1.53125 6.78125 -1.53125 C 7.832031 -1.53125 8.695312 -1.914062 9.375 -2.6875 C 10.050781 -3.46875 10.390625 -4.539062 10.390625 -5.90625 Z M 10.390625 -5.90625 "/></g></g></g><g style="fill:#1b2a41;fill-opacity:1;"><g transform="translate(88.727087, 19.936213)"><path style="stroke:none" d="M 7.15625 -1.53125 C 7.726562 -1.53125 8.265625 -1.648438 8.765625 -1.890625 C 9.265625 -2.128906 9.671875 -2.445312 9.984375 -2.84375 C 10.304688 -3.25 10.492188 -3.671875 10.546875 -4.109375 L 12.75 -4.109375 C 12.425781 -2.703125 11.78125 -1.601562 10.8125 -0.8125 C 9.851562 -0.0195312 8.578125 0.375 6.984375 0.375 C 5.710938 0.375 4.625 0.09375 3.71875 -0.46875 C 2.820312 -1.039062 2.144531 -1.820312 1.6875 -2.8125 C 1.226562 -3.8125 1 -4.945312 1 -6.21875 C 1 -8.4375 1.546875 -10.195312 2.640625 -11.5 C 3.734375 -12.8125 5.28125 -13.46875 7.28125 -13.46875 C 9.09375 -13.46875 10.484375 -12.800781 11.453125 -11.46875 C 12.429688 -10.132812 12.921875 -8.253906 12.921875 -5.828125 L 3.359375 -5.828125 C 3.359375 -4.429688 3.675781 -3.363281 4.3125 -2.625 C 4.957031 -1.894531 5.90625 -1.53125 7.15625 -1.53125 Z M 6.984375 -11.5 C 6.347656 -11.5 5.753906 -11.320312 5.203125 -10.96875 C 4.660156 -10.613281 4.21875 -10.132812 3.875 -9.53125 C 3.53125 -8.9375 3.359375 -8.289062 3.359375 -7.59375 L 10.640625 -7.59375 C 10.441406 -10.195312 9.222656 -11.5 6.984375 -11.5 Z M 6.984375 -11.5 "/></g></g><g style="fill:#1b2a41;fill-opacity:1;"><g transform="translate(106.539723, 19.936213)"><path style="stroke:none" d="M 4.125 -7.484375 L 4.125 0 L 1.921875 0 L 1.921875 -13.09375 L 4 -13.09375 L 4 -10.921875 L 4.0625 -10.921875 C 4.53125 -11.734375 5.054688 -12.359375 5.640625 -12.796875 C 6.234375 -13.242188 6.929688 -13.46875 7.734375 -13.46875 C 7.984375 -13.46875 8.175781 -13.445312 8.3125 -13.40625 L 8.3125 -11.125 L 7.46875 -11.125 C 6.914062 -11.125 6.382812 -10.992188 5.875 -10.734375 C 5.363281 -10.472656 4.941406 -10.070312 4.609375 -9.53125 C 4.285156 -8.988281 4.125 -8.304688 4.125 -7.484375 Z M 4.125 -7.484375 "/></g></g><g style="fill:#1b2a41;fill-opacity:1;"><g transform="translate(118.766035, 19.936213)"><path style="stroke:none" d=""/></g></g><g style="fill:#1b2a41;fill-opacity:1;"><g transform="translate(129.614561, 19.936213)"><path style="stroke:none" d="M 13.75 -10.546875 L 13.75 -17.984375 L 16.1875 -17.984375 L 16.1875 0 L 13.75 0 L 13.75 -8.390625 L 4.359375 -8.390625 L 4.359375 0 L 1.921875 0 L 1.921875 -17.984375 L 4.359375 -17.984375 L 4.359375 -10.546875 Z M 13.75 -10.546875 "/></g></g><g style="fill:#1b2a41;fill-opacity:1;"><g transform="translate(151.585634, 19.936213)"><path style="stroke:none" d="M 6.984375 0.34375 C 5.710938 0.34375 4.613281 0.0351562 3.6875 -0.578125 C 2.757812 -1.191406 2.054688 -2.019531 1.578125 -3.0625 C 1.109375 -4.113281 0.875 -5.28125 0.875 -6.5625 C 0.875 -7.882812 1.117188 -9.066406 1.609375 -10.109375 C 2.109375 -11.148438 2.816406 -11.96875 3.734375 -12.5625 C 4.648438 -13.164062 5.726562 -13.46875 6.96875 -13.46875 C 8.226562 -13.46875 9.316406 -13.160156 10.234375 -12.546875 C 11.160156 -11.929688 11.859375 -11.097656 12.328125 -10.046875 C 12.804688 -8.992188 13.046875 -7.832031 13.046875 -6.5625 C 13.046875 -5.28125 12.800781 -4.109375 12.3125 -3.046875 C 11.832031 -1.984375 11.132812 -1.148438 10.21875 -0.546875 C 9.3125 0.046875 8.234375 0.34375 6.984375 0.34375 Z M 10.765625 -6.484375 C 10.765625 -7.972656 10.4375 -9.191406 9.78125 -10.140625 C 9.132812 -11.097656 8.1875 -11.578125 6.9375 -11.578125 C 5.738281 -11.578125 4.804688 -11.109375 4.140625 -10.171875 C 3.484375 -9.234375 3.15625 -8.03125 3.15625 -6.5625 C 3.15625 -5.125 3.484375 -3.925781 4.140625 -2.96875 C 4.804688 -2.019531 5.75 -1.546875 6.96875 -1.546875 C 8.195312 -1.546875 9.132812 -2.019531 9.78125 -2.96875 C 10.4375 -3.925781 10.765625 -5.097656 10.765625 -6.484375 Z M 10.765625 -6.484375 "/></g></g><g style="fill:#1b2a41;fill-opacity:1;"><g transform="translate(169.39827, 19.936213)"><path style="stroke:none" d="M 11.203125 -11.34375 C 11.898438 -12.175781 12.539062 -12.738281 13.125 -13.03125 C 13.707031 -13.320312 14.367188 -13.46875 15.109375 -13.46875 C 16.359375 -13.46875 17.363281 -13.078125 18.125 -12.296875 C 18.882812 -11.523438 19.265625 -10.484375 19.265625 -9.171875 L 19.265625 0 L 17.0625 0 L 17.0625 -8.421875 C 17.0625 -9.453125 16.875 -10.222656 16.5 -10.734375 C 16.125 -11.242188 15.5 -11.5 14.625 -11.5 C 14.0625 -11.5 13.546875 -11.332031 13.078125 -11 C 12.609375 -10.675781 12.234375 -10.242188 11.953125 -9.703125 C 11.679688 -9.160156 11.546875 -8.566406 11.546875 -7.921875 L 11.546875 0 L 9.34375 0 L 9.34375 -9.0625 C 9.34375 -9.8125 9.160156 -10.40625 8.796875 -10.84375 C 8.441406 -11.28125 7.9375 -11.5 7.28125 -11.5 C 6.25 -11.5 5.414062 -11.109375 4.78125 -10.328125 C 4.144531 -9.554688 3.828125 -8.535156 3.828125 -7.265625 L 3.828125 0 L 1.625 0 L 1.625 -13.09375 L 3.703125 -13.09375 L 3.703125 -11.25 L 3.75 -11.25 C 4.757812 -12.726562 6.082031 -13.46875 7.71875 -13.46875 C 8.46875 -13.46875 9.144531 -13.296875 9.75 -12.953125 C 10.363281 -12.617188 10.847656 -12.082031 11.203125 -11.34375 Z M 11.203125 -11.34375 "/></g></g><g style="fill:#1b2a41;fill-opacity:1;"><g transform="translate(194.149979, 19.936213)"><path style="stroke:none" d="M 7.15625 -1.53125 C 7.726562 -1.53125 8.265625 -1.648438 8.765625 -1.890625 C 9.265625 -2.128906 9.671875 -2.445312 9.984375 -2.84375 C 10.304688 -3.25 10.492188 -3.671875 10.546875 -4.109375 L 12.75 -4.109375 C 12.425781 -2.703125 11.78125 -1.601562 10.8125 -0.8125 C 9.851562 -0.0195312 8.578125 0.375 6.984375 0.375 C 5.710938 0.375 4.625 0.09375 3.71875 -0.46875 C 2.820312 -1.039062 2.144531 -1.820312 1.6875 -2.8125 C 1.226562 -3.8125 1 -4.945312 1 -6.21875 C 1 -8.4375 1.546875 -10.195312 2.640625 -11.5 C 3.734375 -12.8125 5.28125 -13.46875 7.28125 -13.46875 C 9.09375 -13.46875 10.484375 -12.800781 11.453125 -11.46875 C 12.429688 -10.132812 12.921875 -8.253906 12.921875 -5.828125 L 3.359375 -5.828125 C 3.359375 -4.429688 3.675781 -3.363281 4.3125 -2.625 C 4.957031 -1.894531 5.90625 -1.53125 7.15625 -1.53125 Z M 6.984375 -11.5 C 6.347656 -11.5 5.753906 -11.320312 5.203125 -10.96875 C 4.660156 -10.613281 4.21875 -10.132812 3.875 -9.53125 C 3.53125 -8.9375 3.359375 -8.289062 3.359375 -7.59375 L 10.640625 -7.59375 C 10.441406 -10.195312 9.222656 -11.5 6.984375 -11.5 Z M 6.984375 -11.5 "/></g></g><g style="fill:#1b2a41;fill-opacity:1;"><g transform="translate(211.962616, 19.936213)"><path style="stroke:none" d="M 11.203125 -9.375 L 9.0625 -9.375 C 9.0625 -10.082031 8.800781 -10.625 8.28125 -11 C 7.769531 -11.382812 7.019531 -11.578125 6.03125 -11.578125 C 5.226562 -11.578125 4.582031 -11.410156 4.09375 -11.078125 C 3.601562 -10.753906 3.359375 -10.300781 3.359375 -9.71875 C 3.359375 -9.269531 3.503906 -8.921875 3.796875 -8.671875 C 4.085938 -8.429688 4.660156 -8.210938 5.515625 -8.015625 L 8.046875 -7.390625 C 9.304688 -7.066406 10.21875 -6.640625 10.78125 -6.109375 C 11.34375 -5.578125 11.625 -4.859375 11.625 -3.953125 C 11.625 -3.109375 11.40625 -2.351562 10.96875 -1.6875 C 10.53125 -1.03125 9.914062 -0.519531 9.125 -0.15625 C 8.332031 0.195312 7.425781 0.375 6.40625 0.375 C 2.738281 0.375 0.867188 -1.148438 0.796875 -4.203125 L 2.9375 -4.203125 C 2.976562 -3.253906 3.296875 -2.570312 3.890625 -2.15625 C 4.484375 -1.738281 5.316406 -1.53125 6.390625 -1.53125 C 7.304688 -1.53125 8.039062 -1.710938 8.59375 -2.078125 C 9.144531 -2.441406 9.421875 -2.941406 9.421875 -3.578125 C 9.421875 -3.992188 9.296875 -4.316406 9.046875 -4.546875 C 8.804688 -4.785156 8.515625 -4.960938 8.171875 -5.078125 C 7.835938 -5.203125 7.332031 -5.347656 6.65625 -5.515625 L 4.390625 -6.09375 C 3.398438 -6.320312 2.625 -6.679688 2.0625 -7.171875 C 1.507812 -7.671875 1.234375 -8.378906 1.234375 -9.296875 C 1.234375 -10.578125 1.691406 -11.59375 2.609375 -12.34375 C 3.523438 -13.09375 4.742188 -13.46875 6.265625 -13.46875 C 7.796875 -13.46875 8.984375 -13.09375 9.828125 -12.34375 C 10.671875 -11.59375 11.128906 -10.601562 11.203125 -9.375 Z M 11.203125 -9.375 "/></g></g></g></g></g></g></g></g></svg>